<svg width="306" height="40" viewBox="0 0 306 40" fill="none" xmlns="http://www.w3.org/2000/svg">
<path fill-rule="evenodd" clip-rule="evenodd" d="M12.3852 22.475C12.3852 22.475 12.3852 22.4886 12.3986 22.4886L18.6486 19.854L21.841 18.5027C22.1306 18.3805 22.373 18.1564 22.5077 17.878C23.7739 15.3181 26.3668 13.5594 29.3571 13.5594C33.5934 13.5594 37.0349 17.0836 37.0349 21.4361C37.0349 25.7887 33.6001 29.3129 29.3571 29.3129C29.3571 29.3129 26.0907 29.4283 24.0702 28.1042L23.7267 28.9801C25.498 30.0598 27.6128 30.6302 29.869 30.4808C35.0616 30.1345 39.2709 25.9041 39.6346 20.6688C40.0656 14.4761 35.203 9.31549 29.1551 9.31549C26.5823 9.31549 24.2251 10.2525 22.3932 11.8007C22.3595 11.8279 22.3124 11.8007 22.3124 11.76V0.00603811C22.3124 0.00603811 22.307 0.000629868 22.3031 4.80521e-05C22.3008 -0.000282525 22.2989 0.00102656 22.2989 0.00603811C21.8814 0.922716 12.3919 22.4818 12.3919 22.4818L12.3852 22.475ZM241.574 20.3701L241.534 19.4466L241.54 19.4602H248.134V20.3837H247.77C246.942 20.3837 246.753 20.5806 246.713 21.5108V28.5999H245.797V28.2332C245.797 27.3505 245.494 27.3505 245.251 27.3505C244.8 27.3505 244.12 27.5809 243.329 27.849L243.258 27.8733L243.242 27.8787C242.08 28.2715 240.684 28.7432 239.089 28.8919H239.035C238.786 28.9326 238.456 28.9598 237.998 28.9598C233.748 28.9598 230.205 25.9109 229.384 21.8571C229.262 21.28 229.202 20.6756 229.202 20.0645C229.202 19.4534 229.269 18.849 229.384 18.2719C230.199 14.2181 233.748 11.1692 237.998 11.1692C238.422 11.1692 238.739 11.1896 238.981 11.2236C239.028 11.2304 239.082 11.2439 239.129 11.2439C239.134 11.2465 239.139 11.2481 239.144 11.2491C239.153 11.2507 239.161 11.2507 239.17 11.2507C241.432 11.5563 243.419 12.7242 244.8 14.4286L243.466 15.7731C241.325 11.0199 237.048 12.2421 237.048 12.2421C235.385 12.6631 234.374 14.0144 233.809 15.7255C233.479 16.8867 233.25 18.4416 233.229 20.0509C233.243 21.667 233.479 23.2288 233.809 24.3899C234.368 26.1011 235.385 27.4523 237.048 27.8733C237.048 27.8733 237.405 27.9684 238.004 28.0023C238.193 28.0091 238.402 28.0159 238.624 28.0023C238.994 27.9684 239.351 27.9208 239.681 27.8394C239.752 27.8251 239.819 27.8043 239.885 27.7838L239.922 27.7726C239.938 27.7675 239.955 27.7626 239.971 27.7579C240.806 27.4931 241.709 26.9566 242.497 25.9585C242.961 25.2455 243.217 24.3627 243.217 23.3374V21.5108C243.217 20.5059 243.089 20.3701 242.16 20.3701H241.574ZM127.909 26.6986C128.502 27.2758 129.195 27.7103 130.003 27.9141L130.01 27.9208C130.01 27.9208 134.287 29.1431 136.435 24.3831L137.776 25.7276C136.456 27.3573 134.583 28.4912 132.448 28.8579C132.873 29.2789 133.243 29.8832 133.196 30.7252C133.095 32.6333 131.687 33.387 130.01 33.55C128.333 33.7129 127.101 32.8438 127.101 32.8438L126.387 30.6098C126.387 30.6098 127.848 31.9611 129.572 31.9611C131.559 31.9611 131.977 30.6709 131.977 30.6709C129.956 29.1295 127.606 30.0666 127.606 30.0666L128.414 28.6203C124.784 27.5202 122.144 24.1251 122.144 20.0984C122.144 15.1823 126.084 11.1964 130.946 11.1964C131.377 11.1964 131.694 11.2168 131.936 11.2507C131.946 11.2507 131.956 11.2516 131.966 11.2529C131.969 11.2533 131.971 11.2537 131.974 11.2541C131.978 11.2547 131.981 11.2553 131.985 11.2559C131.993 11.2574 132.002 11.2592 132.01 11.2609C132.036 11.266 132.061 11.2711 132.085 11.2711C132.098 11.2779 132.112 11.2779 132.125 11.2779C134.388 11.5902 136.381 12.7582 137.762 14.4625L136.422 15.807C134.273 11.047 129.997 12.2693 129.997 12.2693C125.417 13.4372 125.74 21.6263 126.926 24.9739C127.188 25.714 127.532 26.2708 127.909 26.6986ZM59.8729 26.4677L57.1722 15.0057L57.1588 14.9989C57.1588 14.9989 53.468 26.6646 53.4411 26.7733C53.4074 26.8955 53.394 27.0042 53.394 27.1196C53.394 27.2418 53.4007 27.3505 53.5287 27.4659C53.6903 27.6289 53.9597 27.7103 54.3099 27.7103H54.6736V28.6338H50.9829V27.7375L51.3196 27.7103C52.0605 27.656 52.3096 27.3912 52.6531 26.2708L56.3843 14.4286C56.6402 13.7224 56.6671 13.3489 56.6671 13.2199V13.0909C56.6671 12.7038 56.5998 12.3847 55.7377 12.3847H55.374V11.4341H59.9538L63.5233 26.848C63.6984 27.5338 63.9408 27.7171 64.6547 27.7171H65.0184V28.6406H58.6337V27.7171H58.9974C59.6305 27.7171 59.7652 27.5677 59.7787 27.5542C59.8932 27.3912 59.947 27.235 59.947 27.0517C59.947 26.8887 59.9201 26.6782 59.8729 26.4677ZM96.4637 15.0057L99.1644 26.4677C99.2115 26.6782 99.2385 26.8887 99.2385 27.0517C99.2385 27.235 99.1846 27.3912 99.0701 27.5542L99.0693 27.555C99.0518 27.5729 98.9109 27.7171 98.2888 27.7171H97.9252V28.6406H104.31V27.7171H103.946C103.232 27.7171 102.99 27.5338 102.815 26.848L99.2452 11.4341H94.6655V12.3847H95.0291C95.8912 12.3847 95.9586 12.7038 95.9586 13.0909V13.2199C95.9586 13.3489 95.9316 13.7224 95.6757 14.4286L91.9446 26.2708C91.6011 27.3912 91.3519 27.656 90.611 27.7103L90.2743 27.7375V28.6338H93.965V27.7103H93.6013C93.2511 27.7103 92.9817 27.6289 92.8201 27.4659C92.6921 27.3505 92.6854 27.2418 92.6854 27.1196C92.6854 27.0042 92.6989 26.8955 92.7325 26.7733C92.7595 26.6646 96.4502 14.9989 96.4502 14.9989L96.4637 15.0057ZM147.972 26.4677L145.272 15.0057L145.258 14.9989C145.258 14.9989 141.567 26.6646 141.54 26.7733C141.507 26.8955 141.493 27.0042 141.493 27.1196C141.493 27.2418 141.5 27.3505 141.628 27.4659C141.79 27.6289 142.059 27.7103 142.409 27.7103H142.773V28.6338H139.082V27.7375L139.419 27.7103C140.16 27.656 140.409 27.3912 140.752 26.2708L144.484 14.4286C144.739 13.7224 144.766 13.3489 144.766 13.2199V13.0909C144.766 12.7038 144.699 12.3847 143.837 12.3847H143.473V11.4341H148.053L151.623 26.848C151.798 27.5338 152.04 27.7171 152.754 27.7171H153.118V28.6406H146.733V27.7171H147.097C147.719 27.7171 147.86 27.5729 147.877 27.555L147.878 27.5542C147.992 27.3912 148.046 27.235 148.046 27.0517C148.046 26.8887 148.019 26.6782 147.972 26.4677ZM79.0944 23.446L79.0203 23.8127C78.5758 25.9449 78.138 27.7171 77.3029 27.7171H73.2013C72.3123 27.7171 72.1641 27.4659 72.1574 26.6782V13.6884C72.1574 13.118 72.218 12.7989 72.3797 12.5952C72.4874 12.439 72.7838 12.3575 73.2081 12.3575H73.5717V11.4341H67.2477V12.3575H67.6113C68.4263 12.3575 68.6553 12.6563 68.6553 13.6884V26.5017C68.6553 27.5134 68.4734 27.7171 67.5911 27.7171H67.2275V28.6406H79.0809L79.9834 23.6565L79.0944 23.4528V23.446ZM87.6005 12.3507C86.8462 12.3507 86.5364 12.5341 86.5364 13.6817V26.3795C86.5364 27.4727 86.725 27.7103 87.6005 27.7103H87.9642V28.6338H81.6199V27.7103H81.9836C82.8996 27.7103 83.0478 27.527 83.0478 26.3795V13.6817C83.0478 12.5273 82.8053 12.3507 81.9836 12.3507H81.6199V11.4273H87.9642V12.3507H87.6005ZM119.369 13.4915C119.369 12.7785 119.787 12.3507 120.487 12.3507H120.938V11.4273H116.884V12.3507H117.322C117.665 12.3507 118.453 12.4662 118.453 13.5051V21.3954L111.085 11.4273H106.795V12.3507H107.159C107.96 12.3507 108.209 12.6292 108.223 13.5526V26.556C108.223 27.5134 107.596 27.7103 107.078 27.7103H106.64V28.6338H110.708V27.7103H110.257C109.994 27.7103 109.125 27.6289 109.125 26.5832V14.7002L117.887 26.522C118.265 27.0177 118.46 27.6085 118.46 28.2739V28.6406H119.376V13.4983L119.369 13.4915ZM183.58 12.3168C182.832 12.3168 182.522 12.5001 182.522 13.6477V26.3319C182.522 27.4251 182.711 27.6628 183.58 27.6628H183.943V28.5863H177.606V27.6628H177.969C178.879 27.6628 179.027 27.4727 179.027 26.3319V13.6477C179.027 12.4933 178.791 12.3168 177.969 12.3168H177.606V11.3933H183.943V12.3168H183.58ZM275.457 13.4508C275.457 12.7378 275.875 12.31 276.575 12.31H277.026V11.3865H272.979V12.31H273.417C273.76 12.31 274.548 12.4255 274.548 13.4644V21.3479L267.187 11.3865H262.903V12.31H263.267C264.069 12.31 264.311 12.5884 264.324 13.5119V26.5017C264.324 27.4591 263.698 27.656 263.18 27.656H262.742V28.5795H266.803V27.656H266.352C266.089 27.656 265.22 27.5745 265.22 26.5288V14.6594L273.976 26.4677C274.353 26.9634 274.548 27.5542 274.548 28.2128V28.5795H275.464V13.4576L275.457 13.4508ZM212.964 23.7652L213.045 23.3917L213.058 23.3985L213.927 23.6158L213.025 28.5863H200.808V27.6764L201.158 27.6628C202.074 27.6289 202.215 27.4523 202.215 26.3319V13.6477C202.215 12.5137 202.06 12.3168 201.171 12.3168H199.158C198.396 12.4051 198.161 12.6631 197.824 13.7563C197.824 13.7563 193.965 25.972 193.877 26.3795L193.868 26.4412C193.843 26.6077 193.817 26.7861 193.817 26.9431C193.817 27.0789 193.817 27.2554 193.938 27.4116C194.059 27.561 194.329 27.6357 194.746 27.6357H195.11V28.5863H190.456V28.2536C190.429 28.1314 186.954 13.1928 186.954 13.1928C186.785 12.5069 186.543 12.3168 185.829 12.3168H185.465V11.3933H191.843V12.3168H191.48C190.975 12.3168 190.752 12.4187 190.705 12.4798C190.597 12.6292 190.544 12.7853 190.544 12.9687C190.544 13.1316 193.312 25.0146 193.312 25.0146L197.023 13.2335C197.056 13.1181 197.076 13.023 197.076 12.9076C197.076 12.7921 197.056 12.6631 196.935 12.5409C196.787 12.4051 196.49 12.3168 196.14 12.3168H195.777V11.3933H212.621L213.53 16.4113L212.648 16.5607L212.573 16.2144C212.142 14.1638 211.691 12.3168 210.843 12.3168H206.761C205.839 12.3168 205.704 12.5613 205.704 13.4576V19.4398H208.431C209.374 19.4398 209.576 18.8151 209.576 18.2855V17.0089H210.479V22.7942H209.576V21.4905C209.576 20.7843 209.152 20.3633 208.445 20.3633H205.704V26.5356C205.704 27.5338 205.818 27.6628 206.761 27.6628H211.247C212.082 27.6628 212.52 25.8973 212.964 23.7652ZM261.132 23.3917L261.051 23.7652C260.607 25.8973 260.169 27.6628 259.334 27.6628H254.848C253.906 27.6628 253.791 27.5338 253.791 26.5356V20.3837C253.791 20.3837 255.266 20.3633 256.532 20.3633C257.239 20.3633 257.664 20.7843 257.664 21.4905V22.7942H258.566V17.0089H257.664V18.2855C257.664 18.8151 257.462 19.4398 256.519 19.4398H253.791V13.4576C253.791 12.5613 253.926 12.3168 254.848 12.3168H258.93C259.778 12.3168 260.23 14.1638 260.661 16.2144L260.735 16.5607L261.617 16.4113L260.728 11.3933H248.881V12.3168H249.245C250.134 12.3168 250.289 12.5137 250.289 13.6477V26.3319C250.289 27.4523 250.147 27.6289 249.231 27.6628L248.881 27.6764V28.5863H261.098L262.001 23.6158L261.132 23.3985V23.3917ZM305.05 23.7652L305.131 23.3917V23.3985L306 23.6158L305.098 28.5863H292.88V27.6764L293.231 27.6628C294.147 27.6289 294.288 27.4523 294.288 26.3319V13.6477C294.288 12.5137 294.133 12.3168 293.244 12.3168H292.88V11.3933H304.727L305.616 16.4113L304.734 16.5607L304.66 16.2144C304.229 14.1638 303.777 12.3168 302.929 12.3168H298.848C297.925 12.3168 297.79 12.5613 297.79 13.4576V19.4398H300.518C301.461 19.4398 301.663 18.8151 301.663 18.2855V17.0089H302.565V22.7942H301.663V21.4905C301.663 20.7843 301.238 20.3633 300.531 20.3633C299.265 20.3633 297.79 20.3837 297.79 20.3837V26.5356C297.79 27.5338 297.905 27.6628 298.848 27.6628H303.333C304.168 27.6628 304.606 25.8973 305.05 23.7652ZM216.594 26.3387C216.594 27.4591 216.453 27.6356 215.537 27.6696L215.187 27.6832V28.5931H222.312V27.6696H221.948C221.127 27.6696 220.157 27.3029 219.901 26.264C219.753 25.6393 219.753 25.2115 219.753 24.9875V24.9782C219.753 24.5489 219.753 23.35 220.649 22.2849L220.662 22.2698C220.862 22.0484 221.106 21.7779 221.362 21.5787L223.726 26.5017L223.759 26.5643C223.934 26.9053 224.142 27.3112 224.44 27.6628H223.417V28.5863H230.946V27.6628H228.609C227.922 27.6628 227.458 26.7597 227.289 26.3727L224.285 19.9966C225.828 19.2225 227.282 18.4009 227.559 16.3163C227.579 16.2076 227.579 15.8206 227.579 15.8206C227.579 14.6459 227.141 13.5934 226.319 12.7785C225.417 11.889 224.056 11.4001 222.487 11.4001H215.193V12.3236H215.557C216.446 12.3236 216.601 12.5205 216.601 13.6545V26.3387H216.594ZM221.08 20.3904L220.103 21.409V13.4644C220.103 12.5681 220.238 12.3236 221.16 12.3236H221.464C222.278 12.3236 222.938 12.6835 223.369 13.3557C223.814 14.0823 223.908 14.8971 223.908 15.4539C223.908 15.6237 223.902 15.7595 223.888 15.9156V16.0107C223.686 17.8844 222.622 18.9097 221.397 20.0908L221.396 20.0917L221.086 20.3904H221.08ZM291.574 11.4001H278.677L277.754 16.4181L278.643 16.5539L278.717 16.2212C278.731 16.16 278.745 16.0996 278.758 16.0399C278.774 15.9696 278.788 15.9002 278.803 15.832L278.804 15.8277C278.818 15.7627 278.831 15.6987 278.845 15.6357C278.856 15.5858 278.867 15.5365 278.879 15.4879L278.887 15.4487C278.964 15.0765 279.037 14.7297 279.134 14.4082C279.532 12.9211 279.909 12.3168 280.434 12.3168H282.28C283.182 12.3168 283.337 12.5137 283.337 13.6477V26.3319C283.337 27.4387 283.189 27.6289 282.266 27.6628L281.916 27.6764V28.5863H288.334V27.6764L287.984 27.6628C287.061 27.6289 286.913 27.4455 286.913 26.3319V13.6477C286.913 12.5137 287.075 12.3168 287.971 12.3168H289.816C290.341 12.3168 290.719 12.9211 291.116 14.4082C291.207 14.7068 291.275 15.0328 291.347 15.3714L291.347 15.3716L291.372 15.4879C291.419 15.7255 291.473 15.97 291.533 16.2212L291.608 16.5539L292.497 16.4181L291.574 11.4001ZM161.375 11.3933H168.177C173.154 11.5088 176.488 15.0057 176.488 20.0305C176.488 25.0553 173.141 28.5659 168.352 28.5659H161.375V27.6289L161.738 27.6153C162.648 27.5813 162.776 27.4252 162.776 26.3048V13.6545C162.776 12.5409 162.627 12.344 161.752 12.344H161.375V11.3933ZM166.305 26.5085C166.305 27.5338 166.46 27.6153 167.342 27.6153H168.635C171.639 27.6153 172.918 25.4152 172.918 20.2478C172.918 17.3688 172.615 15.6169 171.908 14.3946C171.073 12.9958 169.679 12.344 167.517 12.344H167.342C166.433 12.344 166.305 12.5816 166.305 13.4644V26.5085ZM27.2626 17.5113C27.276 17.5113 27.276 17.5249 27.276 17.5249L27.2693 17.5181C27.2693 17.5181 17.7798 39.0773 17.3622 39.994C17.3622 40.0075 17.3488 39.994 17.3488 39.994V28.24C17.3488 28.1992 17.3016 28.1721 17.268 28.1992C15.4361 29.7474 13.0788 30.6845 10.5061 30.6845C4.45817 30.6845 -0.40443 25.5239 0.0266071 19.3311C0.390287 14.0958 4.59961 9.86552 9.79222 9.51921C12.0484 9.36982 14.1632 9.9402 15.9344 11.0199L15.591 11.8958C13.5705 10.5717 10.3041 10.6871 10.3041 10.6871C6.06108 10.6871 2.62628 14.2113 2.62628 18.5638C2.62628 22.9164 6.06781 26.4406 10.3041 26.4406C13.2944 26.4406 15.8873 24.6819 17.1535 22.122C17.2882 21.8435 17.5306 21.6195 17.8202 21.4972L21.0126 20.146L27.2626 17.5113Z" fill="#CA9A63"/>
</svg>
