<svg width="240" height="31" viewBox="0 0 240 31" fill="none" xmlns="http://www.w3.org/2000/svg">
<path fill-rule="evenodd" clip-rule="evenodd" d="M9.71384 17.4182C9.71384 17.4182 9.71384 17.4287 9.72441 17.4287L14.6264 15.3869L17.1302 14.3396C17.3573 14.2449 17.5475 14.0712 17.6531 13.8555C18.6462 11.8715 20.6799 10.5085 23.0252 10.5085C26.3477 10.5085 29.047 13.2398 29.047 16.613C29.047 19.9862 26.353 22.7175 23.0252 22.7175C23.0252 22.7175 20.4633 22.8069 18.8786 21.7807L18.6092 22.4596C19.9984 23.2963 21.6571 23.7384 23.4266 23.6226C27.4993 23.3542 30.8007 20.0757 31.0859 16.0183C31.424 11.219 27.6102 7.21951 22.8667 7.21951C20.8489 7.21951 19.0001 7.94572 17.5633 9.14557C17.5369 9.16662 17.4999 9.14557 17.4999 9.11399V0.00467954C17.4999 0.00467954 17.4957 0.000488148 17.4926 3.72404e-05C17.4908 -0.000218957 17.4894 0.000795585 17.4894 0.00467954C17.1619 0.715105 9.71912 17.4234 9.71912 17.4234L9.71384 17.4182ZM189.47 15.7868L189.438 15.0711L189.443 15.0816H194.615V15.7973H194.329C193.68 15.7973 193.532 15.9499 193.5 16.6709V22.1649H192.782V21.8807C192.782 21.1966 192.544 21.1966 192.354 21.1966C192 21.1966 191.467 21.3752 190.846 21.583L190.79 21.6018L190.778 21.606C189.866 21.9104 188.772 22.2759 187.521 22.3912H187.478C187.283 22.4228 187.024 22.4438 186.665 22.4438C183.332 22.4438 180.553 20.081 179.909 16.9393C179.814 16.492 179.766 16.0236 179.766 15.55C179.766 15.0764 179.819 14.608 179.909 14.1607C180.548 11.019 183.332 8.65617 186.665 8.65617C186.998 8.65617 187.246 8.67195 187.436 8.69826C187.473 8.70352 187.515 8.71405 187.552 8.71405C187.556 8.71602 187.56 8.71725 187.564 8.71801C187.571 8.71931 187.577 8.71932 187.584 8.71932C189.359 8.95612 190.917 9.86127 192 11.1821L190.954 12.2241C189.274 8.5404 185.92 9.48763 185.92 9.48763C184.615 9.8139 183.823 10.8611 183.379 12.1873C183.12 13.0872 182.941 14.2923 182.925 15.5395C182.936 16.7919 183.12 18.0023 183.379 18.9022C183.818 20.2283 184.615 21.2755 185.92 21.6018C185.92 21.6018 186.2 21.6755 186.67 21.7018C186.818 21.7071 186.982 21.7123 187.156 21.7018C187.447 21.6755 187.727 21.6387 187.985 21.5755C188.041 21.5645 188.093 21.5483 188.145 21.5324L188.174 21.5237C188.187 21.5198 188.2 21.516 188.213 21.5124C188.868 21.3071 189.575 20.8914 190.193 20.1178C190.558 19.5652 190.759 18.8811 190.759 18.0865V16.6709C190.759 15.8921 190.658 15.7868 189.929 15.7868H189.47ZM100.321 20.6914C100.786 21.1387 101.33 21.4755 101.964 21.6334L101.969 21.6386C101.969 21.6386 105.323 22.5859 107.008 18.8969L108.059 19.9389C107.024 21.2019 105.555 22.0807 103.881 22.3649C104.214 22.6911 104.504 23.1595 104.467 23.812C104.388 25.2908 103.284 25.8749 101.969 26.0012C100.654 26.1275 99.6869 25.4539 99.6869 25.4539L99.1269 23.7226C99.1269 23.7226 100.273 24.7698 101.625 24.7698C103.184 24.7698 103.511 23.7699 103.511 23.7699C101.927 22.5754 100.083 23.3016 100.083 23.3016L100.717 22.1807C97.8698 21.3282 95.7991 18.6969 95.7991 15.5763C95.7991 11.7663 98.8892 8.67722 102.703 8.67722C103.041 8.67722 103.289 8.693 103.48 8.71931C103.487 8.71931 103.495 8.71996 103.503 8.72101C103.505 8.72128 103.507 8.72159 103.509 8.72192C103.512 8.72236 103.515 8.72283 103.517 8.72333C103.524 8.72451 103.531 8.72585 103.538 8.7272C103.557 8.73115 103.577 8.7351 103.596 8.7351C103.606 8.74035 103.617 8.74037 103.627 8.74037C105.402 8.98244 106.966 9.88759 108.049 11.2085L106.998 12.2504C105.312 8.56144 101.958 9.50868 101.958 9.50868C98.3663 10.4138 98.6198 16.7603 99.5495 19.3547C99.7555 19.9284 100.025 20.3599 100.321 20.6914ZM46.9592 20.5125L44.841 11.6295L44.8304 11.6242C44.8304 11.6242 41.9357 20.6651 41.9146 20.7493C41.8882 20.844 41.8776 20.9282 41.8776 21.0177C41.8776 21.1124 41.8829 21.1966 41.9833 21.2861C42.11 21.4124 42.3213 21.4755 42.596 21.4755H42.8813V22.1912H39.9866V21.4966L40.2507 21.4755C40.8317 21.4334 41.0272 21.2282 41.2966 20.3599L44.2229 11.1821C44.4237 10.6348 44.4448 10.3454 44.4448 10.2454V10.1454C44.4448 9.84547 44.392 9.59814 43.7159 9.59814H43.4306V8.86139H47.0226L49.8222 20.8072C49.9595 21.3387 50.1497 21.4808 50.7096 21.4808H50.9948V22.1965H45.9872V21.4808H46.2725C46.769 21.4808 46.8747 21.365 46.8852 21.3545C46.975 21.2282 47.0173 21.1071 47.0173 20.965C47.0173 20.8388 46.9961 20.6756 46.9592 20.5125ZM75.6578 11.6295L77.776 20.5125C77.8129 20.6756 77.8341 20.8388 77.8341 20.965C77.8341 21.1071 77.7918 21.2282 77.702 21.3545L77.7014 21.3551C77.6877 21.369 77.5771 21.4808 77.0893 21.4808H76.804V22.1965H81.8116V21.4808H81.5264C80.9665 21.4808 80.7763 21.3387 80.639 20.8072L77.8394 8.86139H74.2474V9.59814H74.5327C75.2088 9.59814 75.2616 9.84547 75.2616 10.1454V10.2454C75.2616 10.3454 75.2405 10.6348 75.0398 11.1821L72.1134 20.3599C71.844 21.2282 71.6485 21.4334 71.0675 21.4755L70.8034 21.4966V22.1912H73.6981V21.4755H73.4128C73.1381 21.4755 72.9268 21.4124 72.8001 21.2861C72.6997 21.1966 72.6944 21.1124 72.6944 21.0177C72.6944 20.9282 72.705 20.844 72.7314 20.7493C72.7525 20.6651 75.6472 11.6242 75.6472 11.6242L75.6578 11.6295ZM116.057 20.5125L113.938 11.6295L113.928 11.6242C113.928 11.6242 111.033 20.6651 111.012 20.7493C110.986 20.844 110.975 20.9282 110.975 21.0177C110.975 21.1124 110.98 21.1966 111.081 21.2861C111.208 21.4124 111.419 21.4755 111.693 21.4755H111.979V22.1912H109.084V21.4966L109.348 21.4755C109.929 21.4334 110.125 21.2282 110.394 20.3599L113.32 11.1821C113.521 10.6348 113.542 10.3454 113.542 10.2454V10.1454C113.542 9.84547 113.489 9.59814 112.813 9.59814H112.528V8.86139H116.12L118.92 20.8072C119.057 21.3387 119.247 21.4808 119.807 21.4808H120.092V22.1965H115.085V21.4808H115.37C115.858 21.4808 115.968 21.369 115.982 21.3551L115.983 21.3545C116.072 21.2282 116.115 21.1071 116.115 20.965C116.115 20.8388 116.094 20.6756 116.057 20.5125ZM62.0348 18.1707L61.9767 18.4549C61.628 20.1073 61.2847 21.4808 60.6297 21.4808H57.4128C56.7155 21.4808 56.5993 21.2861 56.594 20.6756V10.6085C56.594 10.1665 56.6416 9.91916 56.7684 9.76128C56.8529 9.64024 57.0853 9.5771 57.4181 9.5771H57.7033V8.86139H52.7433V9.5771H53.0285C53.6677 9.5771 53.8473 9.80864 53.8473 10.6085V20.5388C53.8473 21.3229 53.7046 21.4808 53.0127 21.4808H52.7274V22.1965H62.0242L62.7321 18.3338L62.0348 18.176V18.1707ZM68.7063 9.57183C68.1147 9.57183 67.8717 9.71393 67.8717 10.6033V20.4441C67.8717 21.2913 68.0196 21.4755 68.7063 21.4755H68.9915V22.1912H64.0156V21.4755H64.3009C65.0193 21.4755 65.1355 21.3334 65.1355 20.4441V10.6033C65.1355 9.70866 64.9453 9.57183 64.3009 9.57183H64.0156V8.85614H68.9915V9.57183H68.7063ZM93.6228 10.4559C93.6228 9.90336 93.9503 9.57183 94.4997 9.57183H94.8536V8.85614H91.6737V9.57183H92.017C92.2864 9.57183 92.9044 9.66129 92.9044 10.4664V16.5814L87.1256 8.85614H83.7608V9.57183H84.046C84.6746 9.57183 84.8701 9.7876 84.8806 10.5033V20.5809C84.8806 21.3229 84.3894 21.4755 83.9827 21.4755H83.6393V22.1912H86.8298V21.4755H86.4759C86.2699 21.4755 85.5885 21.4124 85.5885 20.602V11.3927L92.4607 20.5546C92.7565 20.9387 92.9097 21.3966 92.9097 21.9123V22.1965H93.6281V10.4612L93.6228 10.4559ZM143.984 9.54552C143.398 9.54552 143.155 9.68761 143.155 10.577V20.4072C143.155 21.2545 143.303 21.4387 143.984 21.4387H144.269V22.1544H139.299V21.4387H139.584C140.297 21.4387 140.413 21.2913 140.413 20.4072V10.577C140.413 9.68234 140.228 9.54552 139.584 9.54552H139.299V8.82982H144.269V9.54552H143.984ZM216.045 10.4243C216.045 9.87179 216.372 9.54025 216.922 9.54025H217.276V8.82457H214.101V9.54025H214.444C214.714 9.54025 215.332 9.62973 215.332 10.4349V16.5446L209.558 8.82457H206.199V9.54025H206.484C207.113 9.54025 207.303 9.75603 207.313 10.4717V20.5388C207.313 21.2808 206.822 21.4334 206.415 21.4334H206.072V22.1491H209.257V21.4334H208.903C208.697 21.4334 208.016 21.3703 208.016 20.5598V11.3611L214.883 20.5125C215.179 20.8967 215.332 21.3545 215.332 21.8649V22.1491H216.05V10.4296L216.045 10.4243ZM167.031 18.418L167.094 18.1286L167.105 18.1339L167.786 18.3023L167.078 22.1544H157.496V21.4492L157.771 21.4387C158.489 21.4124 158.6 21.2755 158.6 20.4072V10.577C158.6 9.69813 158.479 9.54552 157.781 9.54552H156.202C155.605 9.61394 155.42 9.8139 155.156 10.6612C155.156 10.6612 152.129 20.1283 152.061 20.4441L152.053 20.492C152.034 20.621 152.013 20.7592 152.013 20.8809C152.013 20.9861 152.013 21.1229 152.108 21.244C152.203 21.3597 152.415 21.4176 152.742 21.4176H153.027V22.1544H149.377V21.8965C149.356 21.8018 146.63 10.2244 146.63 10.2244C146.498 9.69288 146.308 9.54552 145.748 9.54552H145.463V8.82982H150.465V9.54552H150.18C149.784 9.54552 149.61 9.62446 149.573 9.67182C149.488 9.7876 149.446 9.90864 149.446 10.0507C149.446 10.177 151.617 19.3863 151.617 19.3863L154.527 10.256C154.554 10.1665 154.57 10.0928 154.57 10.0034C154.57 9.91389 154.554 9.8139 154.459 9.71918C154.343 9.61393 154.11 9.54552 153.835 9.54552H153.55V8.82982H166.761L167.474 12.7188L166.782 12.8346L166.724 12.5662C166.386 10.9769 166.032 9.54552 165.367 9.54552H162.166C161.442 9.54552 161.336 9.73497 161.336 10.4296V15.0658H163.476C164.215 15.0658 164.374 14.5817 164.374 14.1712V13.1819H165.081V17.6655H164.374V16.6551C164.374 16.1078 164.041 15.7815 163.486 15.7815H161.336V20.5651C161.336 21.3387 161.426 21.4387 162.166 21.4387H165.684C166.339 21.4387 166.682 20.0704 167.031 18.418ZM204.809 18.1286L204.746 18.418C204.397 20.0704 204.054 21.4387 203.399 21.4387H199.881C199.142 21.4387 199.052 21.3387 199.052 20.5651V15.7973C199.052 15.7973 200.209 15.7815 201.202 15.7815C201.756 15.7815 202.089 16.1078 202.089 16.6551V17.6655H202.797V13.1819H202.089V14.1712C202.089 14.5817 201.931 15.0658 201.191 15.0658H199.052V10.4296C199.052 9.73497 199.157 9.54552 199.881 9.54552H203.082C203.748 9.54552 204.102 10.9769 204.44 12.5662L204.498 12.8346L205.19 12.7188L204.493 8.82982H195.201V9.54552H195.486C196.184 9.54552 196.305 9.69813 196.305 10.577V20.4072C196.305 21.2755 196.194 21.4124 195.476 21.4387L195.201 21.4492V22.1544H204.783L205.491 18.3023L204.809 18.1339V18.1286ZM239.255 18.418L239.319 18.1286V18.1339L240 18.3023L239.292 22.1544H229.71V21.4492L229.985 21.4387C230.703 21.4124 230.814 21.2755 230.814 20.4072V10.577C230.814 9.69813 230.693 9.54552 229.995 9.54552H229.71V8.82982H239.002L239.699 12.7188L239.007 12.8346L238.949 12.5662C238.611 10.9769 238.257 9.54552 237.591 9.54552H234.39C233.667 9.54552 233.561 9.73497 233.561 10.4296V15.0658H235.7C236.44 15.0658 236.598 14.5817 236.598 14.1712V13.1819H237.306V17.6655H236.598V16.6551C236.598 16.1078 236.265 15.7815 235.711 15.7815C234.718 15.7815 233.561 15.7973 233.561 15.7973V20.5651C233.561 21.3387 233.651 21.4387 234.39 21.4387H237.908C238.563 21.4387 238.907 20.0704 239.255 18.418ZM169.878 20.4125C169.878 21.2808 169.767 21.4176 169.048 21.4439L168.774 21.4545V22.1596H174.362V21.4439H174.077C173.433 21.4439 172.672 21.1598 172.471 20.3546C172.355 19.8705 172.355 19.5389 172.355 19.3653V19.3581C172.355 19.0254 172.355 18.0962 173.058 17.2708L173.068 17.2591C173.225 17.0875 173.416 16.8779 173.618 16.7235L175.472 20.5388L175.497 20.5873C175.634 20.8516 175.798 21.1661 176.032 21.4387H175.229V22.1544H181.134V21.4387H179.301C178.763 21.4387 178.398 20.7388 178.266 20.4388L175.91 15.4974C177.12 14.8974 178.261 14.2607 178.477 12.6451C178.493 12.5609 178.493 12.261 178.493 12.261C178.493 11.3506 178.15 10.5349 177.505 9.90337C176.798 9.21398 175.731 8.83509 174.5 8.83509H168.779V9.55079H169.064C169.762 9.55079 169.883 9.7034 169.883 10.5822V20.4125H169.878ZM173.396 15.8026L172.63 16.592V10.4349C172.63 9.74024 172.735 9.55079 173.459 9.55079H173.697C174.336 9.55079 174.854 9.8297 175.192 10.3507C175.54 10.9138 175.614 11.5453 175.614 11.9768C175.614 12.1083 175.609 12.2136 175.598 12.3346V12.4083C175.44 13.8604 174.606 14.655 173.645 15.5704L173.644 15.571L173.401 15.8026H173.396ZM228.685 8.83509H218.57L217.846 12.7241L218.543 12.8293L218.602 12.5714C218.613 12.524 218.623 12.4772 218.634 12.4309C218.646 12.3764 218.658 12.3227 218.669 12.2698L218.67 12.2665C218.681 12.2161 218.691 12.1665 218.702 12.1177C218.711 12.079 218.719 12.0408 218.728 12.0031L218.735 11.9727C218.796 11.6843 218.852 11.4155 218.929 11.1664C219.241 10.0139 219.536 9.54552 219.948 9.54552H221.396C222.104 9.54552 222.225 9.69813 222.225 10.577V20.4072C222.225 21.265 222.109 21.4124 221.385 21.4387L221.111 21.4492V22.1544H226.145V21.4492L225.87 21.4387C225.146 21.4124 225.03 21.2703 225.03 20.4072V10.577C225.03 9.69813 225.157 9.54552 225.859 9.54552H227.307C227.719 9.54552 228.015 10.0139 228.326 11.1664C228.397 11.3978 228.451 11.6504 228.508 11.9128L228.508 11.913L228.527 12.0031C228.564 12.1873 228.606 12.3767 228.654 12.5714L228.712 12.8293L229.409 12.7241L228.685 8.83509ZM126.568 8.82982H131.903C135.807 8.91928 138.422 11.6295 138.422 15.5237C138.422 19.4179 135.797 22.1386 132.041 22.1386H126.568V21.4124L126.854 21.4018C127.567 21.3755 127.667 21.2545 127.667 20.3862V10.5822C127.667 9.71918 127.551 9.56658 126.864 9.56658H126.568V8.82982ZM130.435 20.5441C130.435 21.3387 130.557 21.4018 131.248 21.4018H132.263C134.619 21.4018 135.622 19.6968 135.622 15.6921C135.622 13.4608 135.384 12.1031 134.83 11.1558C134.175 10.0718 133.081 9.56658 131.386 9.56658H131.248C130.535 9.56658 130.435 9.75077 130.435 10.4349V20.5441ZM21.3824 13.5713C21.393 13.5713 21.393 13.5818 21.393 13.5818L21.3877 13.5766C21.3877 13.5766 13.9449 30.2849 13.6174 30.9953C13.6174 31.0058 13.6069 30.9953 13.6069 30.9953V21.886C13.6069 21.8544 13.5699 21.8334 13.5435 21.8544C12.1067 23.0542 10.2579 23.7805 8.24009 23.7805C3.4966 23.7805 -0.3172 19.781 0.0208683 14.9816C0.306108 10.9243 3.60754 7.64578 7.68017 7.37738C9.44973 7.26161 11.1084 7.70366 12.4976 8.54039L12.2282 9.21925C10.6435 8.19307 8.08162 8.28253 8.08162 8.28253C4.75378 8.28253 2.05982 11.0137 2.05982 14.387C2.05982 17.7602 4.75907 20.4914 8.08162 20.4914C10.4269 20.4914 12.4606 19.1285 13.4537 17.1445C13.5593 16.9288 13.7495 16.7551 13.9766 16.6604L16.4804 15.6131L21.3824 13.5713Z" fill="#CA9A63"/>
</svg>
