<svg width="57" height="18" viewBox="0 0 57 18" fill="none" xmlns="http://www.w3.org/2000/svg">
<path d="M10.9707 0C9.27901 0 7.75951 0.305987 6.4021 0.914634C5.04807 1.52328 3.89664 2.32151 2.95118 3.29933C2.00572 4.28049 1.27638 5.39468 0.766504 6.63858C0.256631 7.88248 0 9.14634 0 10.4335C0 11.5876 0.205957 12.6286 0.614531 13.5599C1.0231 14.4911 1.59716 15.286 2.33327 15.9479C3.06938 16.6064 3.94394 17.112 4.95693 17.4678C5.96992 17.8204 7.08756 18 8.30653 18C9.97797 18 11.4097 17.7007 12.5983 17.0987C13.7868 16.4967 14.8066 15.7184 15.6609 14.7639L12.372 11.8969C11.8047 12.459 11.2273 12.8914 10.6398 13.1973C10.0523 13.5033 9.37693 13.6563 8.60706 13.6563C7.58731 13.6563 6.74654 13.337 6.08471 12.7051C5.42289 12.0698 5.09534 11.2018 5.09534 10.0976C5.09534 9.33925 5.23378 8.62084 5.51066 7.93237C5.78755 7.24723 6.159 6.64523 6.62835 6.11641C7.0977 5.59091 7.64811 5.16851 8.28629 4.85588C8.9211 4.54324 9.60655 4.38692 10.346 4.38692C11.2172 4.38692 11.9364 4.57982 12.5037 4.96896C13.071 5.35477 13.5336 5.90355 13.8847 6.61197L18.1022 4.38692C17.5653 3.05321 16.6975 1.98891 15.492 1.19734C14.2866 0.405764 12.7806 0.00997742 10.9741 0.00997742L10.9707 0ZM21.3876 0.345898L16.6671 17.6541H25.7806C27.1347 17.6541 28.3165 17.5177 29.3194 17.245C30.3256 16.9723 31.1563 16.6031 31.8181 16.1308C32.4799 15.6619 32.9695 15.1031 33.2869 14.4612C33.6043 13.8193 33.763 13.1275 33.763 12.3858C33.763 11.4978 33.5166 10.7661 33.0236 10.1973C32.5306 9.6286 31.889 9.20288 31.1056 8.9235C32.3415 8.62749 33.3106 8.09202 34.0061 7.31707C34.7017 6.54213 35.0462 5.60421 35.0462 4.49667C35.0462 3.95454 34.9415 3.42905 34.7321 2.92683C34.5228 2.42461 34.1716 1.97894 33.6786 1.59313C33.1856 1.20732 32.5339 0.90133 31.7201 0.678492C30.9098 0.455654 29.9002 0.345898 28.6947 0.345898H21.391H21.3876ZM39.7059 0.345898L34.9854 17.6541H39.8308L42.5423 7.68958L47.2865 17.6541H51.5546L56.2717 0.345898H51.4263L48.7925 9.96452L44.2475 0.345898H39.7025H39.7059ZM25.1188 4.04767H28.1578C29.9778 4.04767 30.2243 4.94568 30.2243 5.50111C30.2243 5.95344 30.123 7.34701 27.5568 7.34701H24.2679L25.1222 4.04767H25.1188ZM23.4474 10.214H26.8105C28.249 10.214 28.8838 10.9989 28.8838 11.8969C28.8838 12.4357 28.5428 13.9989 26.1318 13.9989H22.4411L23.4474 10.214Z" fill="#104448"/>
</svg>
