<svg width="59" height="18" viewBox="0 0 59 18" fill="none" xmlns="http://www.w3.org/2000/svg">
<path fill-rule="evenodd" clip-rule="evenodd" d="M37.9777 1.77475C36.3269 1.77475 34.7687 2.22128 33.4701 3.00626V1.89136H16.8843V2.80717C16.8843 2.80717 16.4783 2.42037 14.8424 1.94824C12.4722 1.26564 9.44815 1.83447 7.93167 4.8834V1.89136H0V5.09671H1.8329V14.4852H0V17.6906H11.5378V16.9312C12.8304 17.7617 14.3111 18.0632 16.1649 17.9892C19.4396 17.8612 21.1143 15.6058 21.0606 13.1087C21.0009 10.2475 17.7202 9.17237 16.4932 8.77135C14.9559 8.19967 13.5051 8.17123 12.4214 7.16725C11.9766 6.75485 11.9408 6.35098 12.1199 5.94995C12.3707 5.3925 13.1647 5.02561 13.9678 5.09102C14.6603 5.1479 16.132 5.85041 16.7619 7.55121H20.8486V5.09102H23.192V14.3999H21.3591V17.7361H29.246V14.3999H27.1594V5.09386H29.5923V9.75826C29.5923 14.1695 33.3447 17.7446 37.9748 17.7446C42.6048 17.7446 46.3572 14.1695 46.3572 9.75826C46.3572 5.34699 42.6048 1.7719 37.9748 1.7719L37.9777 1.77475ZM16.0305 12.3521C16.5082 12.6451 16.75 13.0262 16.738 13.5694C16.7231 14.198 16.2873 14.8891 14.8603 14.8578C13.5379 14.8294 12.3229 13.6149 11.8035 12.483H8.35558V14.4852H5.92263V5.09386H7.82421C7.85704 5.09386 7.59435 5.86463 7.62121 6.63824C7.66599 7.89819 8.1466 9.14108 9.27501 9.87203C12.3557 11.8743 14.2334 11.2458 16.0335 12.3493L16.0305 12.3521ZM37.9777 13.9392C35.5538 13.9392 33.5925 12.0677 33.5925 9.76111C33.5925 7.45451 35.5567 5.58306 37.9777 5.58306C40.3987 5.58306 42.363 7.45451 42.363 9.76111C42.363 12.0677 40.3987 13.9392 37.9777 13.9392Z" fill="#104448"/>
<path fill-rule="evenodd" clip-rule="evenodd" d="M58.7368 7.75598V1.88851H53.8262L55.1188 0H52.2918L51.0171 1.88851H45.187V5.00854H46.9901V14.4397H45.187V17.6906H58.7368V11.88H54.7725V14.4397H51.0171V11.5927H53.5993V8.00058H51.0171V5.00854H54.7725V7.75598H58.7368Z" fill="#104448"/>
</svg>
