<svg width="108" height="18" viewBox="0 0 108 18" fill="none" xmlns="http://www.w3.org/2000/svg">
<path d="M41.8546 8.77939C41.8546 11.1433 40.968 13.1884 39.2367 14.9147C37.5054 16.6409 35.4505 17.4815 33.0332 17.4815C30.6159 17.4815 28.5611 16.599 26.8686 14.9147C25.1374 13.1916 24.2895 11.1465 24.2895 8.74074C24.2895 6.33494 25.1762 4.28986 26.8686 2.56683C27.7553 1.72625 28.6808 1.08213 29.7293 0.640902C30.7777 0.199678 31.9039 0 33.1141 0C34.3244 0 35.4894 0.241546 36.6188 0.763285C37.7481 1.24316 38.7125 1.92593 39.5182 2.84702L36.3761 5.69404C36.0136 5.25282 35.4894 4.93076 34.8454 4.65056L34.0008 4.37037C33.7193 4.28985 33.3957 4.28985 33.1141 4.28985C31.8262 4.28985 30.7777 4.73108 29.9331 5.57166C29.0465 6.45411 28.6452 7.49758 28.6452 8.73752C28.6452 9.97746 29.0885 11.0242 29.9331 11.9034C30.8198 12.7858 31.8683 13.2271 33.1141 13.2271C33.9587 13.2271 34.7645 13.0274 35.4894 12.5862C36.2142 12.1449 36.7773 11.504 37.1818 10.6216H33.3148V7.13366L41.7737 7.1723L41.8546 8.25443V8.77617V8.77939ZM69.6488 2.76651C67.8754 1.00161 65.7817 0.119163 63.3256 0.119163C60.8695 0.119163 58.7337 1.00161 57.0024 2.72464C55.2291 4.44767 54.3845 6.57327 54.3424 9.01771C54.3424 11.4622 55.187 13.5491 56.9603 15.3108C58.6916 17.0757 60.8274 17.9581 63.2835 17.9581C65.7397 17.9581 67.8754 17.0757 69.6067 15.3527C71.38 13.5878 72.2667 11.504 72.2667 9.05958C72.3055 6.65378 71.4221 4.52818 69.6488 2.76651ZM66.5066 12.306C65.6199 13.1884 64.5326 13.6296 63.2835 13.6296C62.0344 13.6296 60.9083 13.1884 60.0216 12.306C59.1349 11.4235 58.6916 10.3414 58.6916 9.05958C58.6916 7.77778 59.1349 6.7343 60.0604 5.8132C60.9471 4.93076 62.0344 4.48953 63.2835 4.48953C64.5326 4.48953 65.5811 4.9694 66.5066 5.85185C67.4321 6.77295 67.8754 7.81642 67.8754 9.05958C67.9143 10.3414 67.4321 11.4235 66.5066 12.306ZM107.996 9.10145C107.996 11.5459 107.109 13.6329 105.378 15.3945C103.646 17.1562 101.591 18 99.1742 18C96.7569 18 94.702 17.1176 93.0096 15.3527C91.3171 13.5878 90.4725 11.504 90.4725 9.05958C90.4725 6.61514 91.3171 4.48953 93.0516 2.72464C94.7829 0.959743 96.8378 0.119163 99.2551 0.119163C101.672 0.119163 103.685 1.00161 105.42 2.76651C107.151 4.5314 108.038 6.65378 107.999 9.10145M103.727 9.10145C103.727 7.85829 103.284 6.81481 102.397 5.89372C101.511 4.97263 100.462 4.5314 99.2551 4.5314C98.048 4.5314 96.9996 4.97263 96.1129 5.85507C95.2262 6.73752 94.7829 7.81965 94.7829 9.10145C94.7829 10.3833 95.2262 11.4267 96.0708 12.3478C96.9154 13.2303 98.006 13.6715 99.2518 13.6715C100.498 13.6715 101.507 13.2303 102.394 12.3478C103.281 11.4267 103.724 10.3446 103.724 9.10145M17.523 9.10145C17.523 11.5459 16.6364 13.6329 14.9051 15.3945C13.2127 17.1594 11.1189 18 8.70165 18C6.28434 18 4.22947 17.1176 2.53704 15.3527C0.8446 13.591 0 11.504 0 9.05958C0 6.61514 0.886668 4.48953 2.5791 2.72464C4.31037 0.959743 6.36524 0.119163 8.78255 0.119163C11.1998 0.119163 13.2547 1.00161 14.9472 2.76651C16.6784 4.5314 17.5263 6.65378 17.5263 9.10145M13.2127 9.10145C13.2127 7.85829 12.7693 6.81481 11.8826 5.89372C10.996 4.97263 9.94751 4.5314 8.74048 4.5314C7.53344 4.5314 6.48497 4.97263 5.59831 5.85507C4.71164 6.73752 4.2683 7.81965 4.2683 9.10145C4.2683 10.3833 4.71164 11.4267 5.55624 12.3478C6.40084 13.2303 7.49138 13.6715 8.73724 13.6715C9.98311 13.6715 10.9927 13.2303 11.8794 12.3478C12.7661 11.4267 13.2094 10.3446 13.2094 9.10145M81.855 14.0709H78.8326V10.0225H81.855C82.8226 10.0225 84.4341 10.2641 84.4341 12.0258C84.4341 13.5878 83.5474 14.0709 81.855 14.0709ZM78.8714 3.96779H81.046C81.7709 3.96779 83.3824 3.92915 83.3824 5.21095C83.3824 6.57327 81.69 6.41224 81.0848 6.41224H78.8682V3.96779H78.8714ZM85.8418 7.97745C87.3336 7.21417 87.7348 6.13204 87.7348 4.85024C87.7348 3.84863 87.5342 2.76651 86.6864 2.00322C85.3564 0.640902 83.6639 0.560386 80.5218 0.560386H74.5999V17.4396H80.7224C83.8257 17.4396 85.3564 17.3205 87.0456 16.0354C88.1749 15.1948 88.738 13.5105 88.738 12.1481C88.7768 11.4654 88.8189 8.98229 85.8385 7.97745H85.8418ZM55.9928 17.4396L53.3748 13.8712H48.3396V0.560386H44.1101V17.4396H55.9928Z" fill="#104448"/>
</svg>
