<svg width="64" height="18" viewBox="0 0 64 18" fill="none" xmlns="http://www.w3.org/2000/svg">
<path d="M47.1456 2.30847C47.2369 3.61613 47.3477 4.92378 47.5715 6.21646C46.2657 8.30528 47.0392 10.9934 47.5715 13.2149C46.6285 13.2341 45.6899 13.2791 44.7425 13.2641C44.6295 13.2641 44.5253 13.217 44.4144 13.2127C43.6757 13.1935 42.9369 13.2298 42.2025 13.1442C42.1069 13.0972 41.9396 12.515 41.894 12.3716C41.1878 10.1587 40.4577 5.74562 41.5441 3.64823C41.7506 3.24802 42.0917 2.93983 42.4285 2.64662C43.9929 2.44545 45.5682 2.34914 47.1478 2.30847H47.1456Z" fill="#104448"/>
<path d="M61.9208 4.0035C62.3249 5.06718 62.6378 6.18221 62.8181 7.31009C63.0485 8.75044 63.2201 10.7836 62.6161 12.1405C62.2141 13.0437 61.2124 13.7264 60.4107 14.2743C59.6632 14.392 58.9027 14.3213 58.1488 14.3406C57.9467 14.3449 57.7707 14.4476 57.5578 14.3406C57.9619 13.9639 58.0901 13.4353 58.1683 12.9067C58.2031 12.6713 58.1835 12.2689 58.2335 12.0827C58.2683 11.95 58.6768 11.4514 58.7832 11.2673C60.0522 9.09073 60.0152 6.4476 59.6002 4.04417L61.9208 4.00564V4.0035Z" fill="#104448"/>
<path d="M57.7816 0.307399C58.24 1.30259 58.5486 2.35556 58.831 3.41067C58.8093 3.45989 58.7702 3.4706 58.7202 3.47916C58.4008 3.53052 57.9206 3.49628 57.5795 3.52624C57.1558 3.56262 56.7299 3.63325 56.3041 3.66107C55.6935 2.69157 54.5897 2.41548 53.525 2.1822C50.3744 1.4952 47.0196 1.64502 43.8191 1.83977C43.8452 1.76915 43.9994 1.7242 44.0711 1.6921C45.5791 1.00938 47.5281 0.592044 49.1729 0.350203C51.9889 -0.0628529 54.9678 -0.150601 57.7816 0.305259V0.307399Z" fill="#104448"/>
<path d="M47.8062 13.8291C48.1365 14.9206 48.6101 15.9736 49.1403 16.9837C49.136 17.0608 47.8366 17.354 47.6584 17.3968C46.8023 17.598 46.3287 17.8441 45.4682 17.5102C43.8778 16.896 43.0521 15.2202 42.3915 13.7777L47.8062 13.8291Z" fill="#104448"/>
<path d="M55.5588 3.75952C53.4946 3.97354 51.4261 4.34165 49.4749 5.04791L48.0952 5.72635L47.7627 2.31061C48.9317 2.28279 50.092 2.38338 51.2566 2.45187C52.1779 2.57814 53.1035 2.68729 54.0009 2.93341C54.5745 3.08964 55.2111 3.25016 55.5588 3.76166V3.75952Z" fill="#104448"/>
<path d="M55.3676 14.9013L53.2056 15.7917L49.7791 16.8532C49.2033 15.9115 48.8405 14.865 48.4298 13.8462C48.4407 13.7307 49.0751 13.7842 49.212 13.7756C49.5727 13.7563 49.9442 13.72 50.3028 13.6814C50.4961 13.7692 50.5917 13.9511 50.7721 14.0667C51.3305 14.4219 52.5864 14.6146 53.2599 14.7066C53.9335 14.7986 54.6679 14.8307 55.3676 14.9013Z" fill="#104448"/>
<path d="M58.9809 4.08911C59.3199 6.15439 59.4373 8.38875 58.5616 10.3449C58.479 10.5311 58.366 10.7836 58.2205 10.9227C58.0858 8.62631 57.6447 6.3149 56.6517 4.23036L58.9809 4.08911Z" fill="#104448"/>
<path d="M59.2178 14.9484C58.9636 15.1368 58.6246 15.3144 58.3335 15.4578C55.4697 16.8617 51.3327 18.1138 48.1191 17.9918C48.0626 17.9896 47.9431 18.026 47.9539 17.9447C50.3788 17.369 52.8797 16.6991 55.1633 15.706C55.4002 15.6033 56.5909 14.9484 56.6756 14.9484H59.2178Z" fill="#104448"/>
<path d="M57.5556 12.5129C57.5773 13.3369 57.2818 14.0067 56.4844 14.3363C55.0286 14.27 53.5207 14.2101 52.0997 13.8847C51.8302 13.8227 51.5021 13.7735 51.2827 13.6129C53.3947 13.3989 55.5414 13.1935 57.5556 12.5129Z" fill="#104448"/>
<path d="M49.8551 13.1228L48.2342 13.1892C47.6845 11.2801 47.1956 9.19132 47.7171 7.22448L48.1104 8.82534C48.5059 10.3256 49.0143 11.8045 49.8551 13.1207V13.1228Z" fill="#104448"/>
<path d="M61.6426 3.38499L59.4612 3.42779L58.5529 0.482895C60.1347 0.780381 61.0755 1.98745 61.6426 3.38499Z" fill="#104448"/>
<path d="M12.5067 5.92111C11.844 5.53588 11.077 5.34326 10.2339 5.34326C9.33874 5.34326 8.51959 5.55514 7.79605 5.97033C7.07467 6.38553 6.49454 6.96124 6.07301 7.67606C5.65148 8.39303 5.43638 9.20844 5.43638 10.103C5.43638 10.9976 5.65365 11.8344 6.0817 12.5514C6.50974 13.2684 7.09857 13.8419 7.83298 14.2571C8.56739 14.6723 9.41262 14.8842 10.3469 14.8842C11.0748 14.8842 11.7658 14.7472 12.4002 14.4797C13.0369 14.2101 13.5909 13.8141 14.0451 13.3026L14.082 13.2598L12.8739 12.0506L12.8304 12.0998C12.5306 12.4465 12.1634 12.7098 11.7419 12.8831C11.3203 13.0565 10.851 13.1442 10.3469 13.1442C9.74288 13.1442 9.19968 13.0158 8.73253 12.7611C8.26972 12.5086 7.90686 12.1448 7.65698 11.6825C7.51575 11.4193 7.41146 11.126 7.35062 10.8093H14.5144L14.5252 10.7622C14.5622 10.5846 14.5904 10.4176 14.6035 10.27C14.6165 10.1223 14.623 9.98319 14.623 9.85691C14.623 8.988 14.434 8.20255 14.0646 7.52625C13.6931 6.84781 13.1672 6.30848 12.5045 5.92325M7.35714 9.26194C7.41797 8.96874 7.51358 8.69693 7.64177 8.45723C7.88078 8.01421 8.22191 7.66322 8.66082 7.4171C9.09973 7.17098 9.61686 7.04471 10.1948 7.04471C10.7728 7.04471 11.2247 7.16028 11.6137 7.38928C12.0004 7.61614 12.3046 7.94145 12.5176 8.3545C12.6501 8.61133 12.7414 8.91737 12.7913 9.26622H7.35714V9.26194ZM33.8611 5.5316V6.65734C33.5526 6.29136 33.1854 5.99602 32.7617 5.77558C32.2076 5.48665 31.5688 5.34112 30.8691 5.34112C30.0109 5.34112 29.2308 5.55514 28.5486 5.9789C27.8663 6.40051 27.3209 6.97836 26.9233 7.69533C26.5279 8.41229 26.3258 9.2277 26.3258 10.1223C26.3258 11.0169 26.5257 11.8344 26.9233 12.5493C27.3188 13.2662 27.8663 13.8398 28.5486 14.255C29.2308 14.6723 30.013 14.8821 30.8691 14.8821C31.5709 14.8821 32.2119 14.7365 32.7725 14.4455C33.194 14.2272 33.5612 13.9361 33.8611 13.5723V14.6895H35.7427V5.5316H33.8611ZM33.9762 10.1223C33.9762 11.0041 33.7155 11.736 33.2006 12.2989C32.6878 12.8596 32.0012 13.1442 31.1581 13.1442C30.591 13.1442 30.0826 13.0137 29.6437 12.7526C29.2048 12.4936 28.8571 12.1341 28.6116 11.6825C28.366 11.2309 28.2422 10.7001 28.2422 10.103C28.2422 9.50592 28.366 8.99656 28.6116 8.54284C28.8571 8.09126 29.2004 7.73171 29.6328 7.47061C30.0652 7.21164 30.5714 7.07895 31.1364 7.07895C31.7013 7.07895 32.2011 7.20736 32.6226 7.45991C33.0419 7.71245 33.3766 8.072 33.6134 8.53C33.8546 8.99014 33.9741 9.52305 33.9741 10.1202M19.9573 5.34112C18.9252 5.34112 18.1212 5.69425 17.5693 6.39195C17.5541 6.41121 17.5411 6.43048 17.5237 6.44974V5.5316H15.6616V14.6937H17.5237V9.49522C17.5237 8.67767 17.7258 8.06344 18.1256 7.67392C18.5254 7.28227 19.0425 7.08109 19.6661 7.08109C19.9529 7.08109 20.2093 7.12176 20.431 7.20094L20.5135 7.23091V5.38392L20.4592 5.3775C20.2745 5.35182 20.1137 5.34112 19.9551 5.34112M26.5192 7.23305V5.38606L26.4648 5.37964C26.2801 5.35396 26.1194 5.34326 25.9607 5.34326C24.9287 5.34326 24.1247 5.69639 23.5728 6.39409C23.5576 6.41335 23.5424 6.43261 23.5272 6.45188V5.53374H21.6651V14.6959H23.5272V9.49736C23.5272 8.67981 23.7293 8.06558 24.1291 7.67606C24.5289 7.28441 25.046 7.08323 25.6696 7.08323C25.9564 7.08323 26.2128 7.1239 26.4344 7.20308L26.517 7.23305H26.5192ZM2.04027 9.52519V7.45562H4.08271V5.5209H2.04027V2.42833H0V9.52733C0 11.156 0.430223 12.5172 1.24285 13.4653C2.03159 14.3813 3.15926 14.8885 4.42384 14.8885V12.8789C2.93112 12.8789 2.04027 11.6268 2.04027 9.52947" fill="#104448"/>
</svg>
