<svg width="36" height="18" viewBox="0 0 36 18" fill="none" xmlns="http://www.w3.org/2000/svg">
<path d="M35.4499 12.8021C33.7552 12.8021 32.9756 11.9109 32.9756 10.2605V0H27.7091V7.62741C25.9813 3.98198 21.5469 2.3908 17.801 4.07352C16.1892 4.79776 14.8954 6.05777 14.1517 7.62741V3.56736H8.9765V10.7048C8.9765 11.9971 8.24389 12.8909 7.09937 12.8909C5.95484 12.8909 5.22224 11.9998 5.22224 10.7048V3.56736H0V10.7936C0 15.2091 2.79496 17.9741 7.09937 17.9741C10.5799 17.9741 13.0542 16.1002 13.8311 13.0686C15.1829 16.8891 19.4597 18.9164 23.3826 17.5972C25.5168 16.881 27.206 15.2656 27.9856 13.2006C28.7652 16.4556 31.2837 17.8852 34.673 17.8852H36V12.7994H35.4499V12.8021ZM20.9332 12.8909C19.6947 12.8909 18.6884 11.9136 18.6884 10.7048C18.6884 9.49859 19.6919 8.51858 20.9332 8.51858C22.1717 8.51858 23.178 9.4959 23.178 10.7048C23.178 11.9136 22.1745 12.8909 20.9332 12.8909Z" fill="#104448"/>
</svg>
